<?xml version="1.0" standalone="no"?>
<!DOCTYPE svg PUBLIC "-//W3C//DTD SVG 20010904//EN"
 "http://www.w3.org/TR/2001/REC-SVG-20010904/DTD/svg10.dtd">
<svg version="1.0" xmlns="http://www.w3.org/2000/svg"
 width="1200.000000pt" height="1200.000000pt" viewBox="0 0 1200.000000 1200.000000"
 preserveAspectRatio="xMidYMid meet">

<g transform="translate(0.000000,1200.000000) scale(0.100000,-0.100000)"
fill="#000000" stroke="none">
<path d="M5515 11884 c-352 -35 -555 -66 -817 -125 -1145 -257 -2209 -864
-2995 -1708 -825 -886 -1344 -1947 -1533 -3136 -50 -313 -77 -802 -65 -1155
41 -1227 440 -2366 1166 -3330 158 -209 221 -284 422 -498 366 -389 651 -632
1067 -907 695 -460 1433 -747 2270 -884 330 -53 373 -56 960 -55 592 0 617 2
975 64 949 165 1787 525 2545 1093 272 205 492 403 764 692 242 258 398 453
587 735 625 936 958 1969 998 3104 75 2080 -891 3974 -2625 5149 -210 142
-324 208 -609 352 -289 146 -457 218 -712 305 -407 139 -789 225 -1248 281
-144 17 -242 21 -640 24 -258 1 -488 1 -510 -1z m1035 -108 c524 -59 958 -161
1418 -332 1685 -628 2955 -1950 3513 -3657 116 -355 200 -728 254 -1127 8 -63
20 -244 27 -403 30 -724 -42 -1311 -242 -1972 -539 -1785 -1933 -3224 -3705
-3823 -913 -309 -1907 -382 -2849 -208 -748 139 -1398 394 -2081 820 -343 213
-654 464 -981 791 -423 422 -700 793 -994 1330 -278 506 -467 1010 -586 1565
-81 375 -108 596 -124 1010 -21 506 10 887 110 1380 176 866 542 1670 1078
2369 325 424 739 834 1152 1142 771 576 1671 947 2622 1083 150 22 237 31 468
50 123 10 784 -3 920 -18z"/>
<path d="M5670 11473 c-213 -13 -594 -61 -617 -78 -16 -12 -14 -17 23 -66 23
-30 91 -115 152 -189 62 -74 112 -144 112 -156 0 -31 -174 -359 -229 -432
l-17 -23 -60 45 c-90 67 -316 259 -327 277 -9 14 30 170 120 473 5 18 1 19
-63 13 -126 -11 -719 -194 -740 -228 -9 -15 31 -54 194 -191 78 -66 150 -130
158 -144 15 -22 12 -36 -57 -256 -39 -128 -76 -237 -80 -242 -4 -5 -106 44
-229 110 -168 90 -222 124 -226 141 -3 12 4 126 16 254 12 130 18 235 13 240
-11 11 -146 -50 -386 -176 -223 -117 -340 -191 -345 -217 -4 -21 36 -48 256
-168 85 -47 160 -93 166 -102 11 -17 -6 -181 -40 -404 -15 -93 -19 -104 -37
-104 -26 0 -378 105 -433 129 l-41 19 -11 93 c-7 52 -16 150 -22 219 -18 211
-19 212 -89 169 -159 -96 -601 -474 -601 -513 0 -17 29 -29 268 -105 158 -51
195 -66 202 -84 15 -37 30 -183 37 -351 l6 -159 -119 6 c-120 7 -340 32 -368
43 -17 7 -52 99 -106 287 -47 163 -65 207 -81 207 -41 0 -470 -505 -533 -627
-15 -30 -15 -33 2 -42 10 -5 86 -17 168 -26 241 -25 323 -37 333 -49 14 -18
38 -99 90 -306 45 -177 48 -196 33 -202 -22 -10 -374 -48 -438 -48 l-50 0 -99
188 c-119 226 -154 284 -169 279 -27 -9 -179 -263 -312 -522 -88 -172 -114
-239 -98 -255 7 -7 75 -3 198 10 103 11 216 20 251 20 l63 0 50 -97 c56 -110
172 -360 172 -372 0 -7 -294 -104 -395 -130 -85 -23 -81 -26 -231 161 -190
235 -179 222 -196 215 -9 -3 -30 -41 -46 -84 -77 -199 -235 -753 -219 -769 3
-4 120 28 260 70 140 42 258 76 264 76 15 0 313 -397 313 -417 0 -18 -411
-244 -442 -243 -7 1 -91 68 -187 150 -171 146 -233 191 -247 177 -20 -20 -72
-484 -81 -714 -5 -141 -4 -163 9 -168 20 -8 143 54 415 207 l52 29 181 -161
c157 -141 200 -184 200 -203 0 -14 -356 -303 -376 -305 -16 -2 -86 30 -207 96
-197 108 -254 135 -268 126 -20 -12 -7 -274 32 -619 22 -202 33 -255 54 -255
12 0 85 57 319 252 45 37 88 67 96 68 8 0 85 -42 170 -93 237 -142 272 -166
264 -180 -42 -70 -307 -398 -319 -393 -86 33 -479 155 -486 150 -16 -9 -10
-66 21 -188 70 -276 196 -646 220 -646 11 0 107 105 205 225 54 66 103 126
110 133 10 11 52 1 239 -62 124 -41 235 -80 247 -86 19 -11 17 -18 -67 -178
-89 -171 -161 -292 -172 -292 -4 0 -88 9 -186 20 -224 25 -274 26 -283 4 -13
-33 319 -656 388 -730 12 -13 28 -24 35 -24 7 0 63 100 126 223 l113 222 75
-3 c89 -4 245 -18 353 -33 l77 -11 0 -36 c0 -26 -105 -466 -114 -479 -1 -1
-99 -14 -216 -28 -231 -28 -290 -40 -290 -57 0 -38 414 -536 518 -623 l32 -27
15 36 c8 19 37 118 64 218 66 247 60 234 118 246 95 21 230 35 343 36 l115 1
3 -85 c3 -81 -11 -302 -25 -383 -7 -47 -14 -51 -220 -121 -219 -75 -243 -85
-243 -106 0 -30 246 -248 465 -412 126 -94 174 -123 185 -112 6 7 41 447 40
511 0 23 491 169 501 150 8 -15 44 -226 64 -377 l15 -115 -27 -22 c-15 -12
-95 -62 -177 -112 -83 -49 -170 -103 -194 -121 -52 -38 -50 -42 53 -109 138
-90 597 -321 639 -321 8 0 17 8 20 17 4 9 -5 119 -20 243 -15 125 -25 233 -22
242 11 28 402 248 441 248 13 0 33 -51 86 -217 38 -120 73 -228 76 -241 5 -17
-1 -30 -27 -55 -19 -17 -100 -94 -181 -170 -81 -76 -147 -142 -147 -146 0 -23
210 -98 490 -174 260 -71 300 -77 300 -43 0 7 -22 87 -49 177 -27 90 -59 197
-70 236 l-20 73 162 128 c245 194 236 188 252 171 7 -8 64 -108 125 -222 100
-184 111 -211 101 -230 -6 -12 -61 -85 -122 -162 -128 -163 -166 -222 -152
-236 23 -23 370 -64 646 -75 l167 -7 0 23 c0 12 -45 112 -100 221 -55 109
-100 207 -100 218 0 22 302 391 320 391 6 0 102 -112 253 -296 37 -45 67 -89
67 -97 0 -9 -47 -110 -105 -227 -58 -116 -105 -216 -105 -222 0 -21 406 7 684
48 122 18 156 28 156 46 -1 7 -66 95 -145 196 -80 101 -145 191 -145 200 1 16
187 373 220 421 l15 22 80 -57 c92 -65 305 -235 323 -256 9 -12 -2 -60 -53
-233 -36 -120 -65 -227 -65 -237 0 -14 8 -18 33 -18 44 0 268 60 461 124 202
67 266 94 266 114 0 17 -51 68 -213 212 -66 59 -120 115 -124 129 -6 24 87
325 133 429 22 50 25 52 46 41 105 -55 294 -158 342 -187 92 -55 93 -60 60
-318 -20 -151 -25 -217 -17 -225 21 -21 645 309 713 377 l25 25 -25 19 c-23
18 -88 57 -308 186 -51 29 -85 56 -88 69 -5 22 51 483 60 493 10 10 444 -119
482 -143 25 -16 29 -39 44 -276 12 -173 20 -213 41 -217 26 -5 411 298 574
453 l60 56 -36 19 c-19 10 -109 44 -199 75 -187 65 -217 78 -224 102 -9 33
-25 206 -32 352 l-7 144 104 -6 c96 -6 298 -29 376 -43 37 -7 38 -12 113 -274
47 -162 54 -180 75 -180 44 0 515 563 515 615 0 19 -13 22 -202 46 -95 12
-193 27 -218 33 -44 11 -45 12 -68 79 -23 69 -98 362 -104 406 -2 20 3 26 27
32 33 9 399 49 445 49 28 0 34 -9 129 -198 55 -109 107 -205 117 -213 15 -12
20 -10 48 23 82 95 387 672 370 700 -8 12 -94 10 -234 -7 -69 -8 -146 -15
-172 -15 l-46 0 -35 62 c-115 209 -207 392 -199 400 13 13 440 158 466 158 16
0 42 -25 96 -92 104 -130 209 -248 221 -248 26 0 125 282 200 565 34 132 49
235 34 235 -3 0 -54 -16 -113 -34 -279 -90 -344 -107 -360 -94 -18 16 -143
170 -241 297 l-71 94 62 42 c116 77 355 215 374 215 19 0 65 -35 258 -192 120
-98 150 -113 160 -80 14 46 57 448 72 673 4 72 3 112 -5 127 -14 27 -7 30
-254 -106 -128 -71 -192 -101 -200 -95 -95 73 -372 308 -382 323 -6 9 138 142
294 268 l93 76 52 -28 c219 -119 358 -187 378 -184 23 3 23 5 20 113 -7 305
-64 745 -95 745 -7 0 -66 -46 -132 -101 -66 -56 -153 -128 -193 -160 l-74 -59
-126 67 c-202 106 -307 169 -310 185 -3 17 73 124 212 296 79 99 94 113 116
109 14 -2 90 -24 170 -49 254 -80 288 -88 300 -73 14 17 -14 136 -102 429 -69
234 -111 347 -137 370 -17 16 -21 14 -75 -44 -31 -34 -101 -119 -157 -191 -55
-71 -104 -129 -107 -129 -12 0 -307 92 -389 122 -46 17 -83 34 -83 40 0 27
172 403 203 443 18 23 79 23 301 0 200 -21 206 -21 206 13 -1 70 -323 662
-393 720 -22 18 -48 -20 -146 -213 -44 -88 -90 -175 -101 -194 l-21 -34 -93 7
c-122 9 -383 43 -396 51 -16 10 -8 54 52 295 28 113 56 210 63 215 7 6 98 19
202 29 206 19 282 31 297 46 15 15 -50 106 -244 340 -114 138 -280 311 -291
305 -9 -6 -52 -137 -104 -314 -53 -182 -49 -177 -142 -184 -43 -4 -146 -13
-230 -22 -84 -8 -159 -12 -168 -9 -19 8 -21 157 -4 348 16 196 -8 170 235 252
115 38 217 74 227 78 40 19 25 38 -159 197 -228 198 -430 349 -466 349 -14 0
-18 -8 -18 -35 0 -42 -38 -421 -45 -452 -5 -22 -103 -59 -354 -133 -121 -35
-127 -36 -140 -12 -12 22 -61 403 -61 470 l0 47 93 47 c230 118 325 182 314
211 -19 51 -630 374 -691 365 -29 -4 -31 -58 -7 -288 10 -102 15 -192 10 -200
-8 -17 -172 -112 -314 -183 -142 -70 -126 -76 -174 59 -47 132 -111 347 -111
373 0 9 54 61 123 118 167 139 230 199 225 215 -2 7 -25 23 -51 36 -108 52
-551 186 -682 206 -76 12 -76 10 -7 -222 91 -304 96 -261 -44 -379 -200 -167
-263 -215 -273 -208 -9 5 -108 176 -225 387 l-37 66 133 164 c184 226 186 228
164 243 -28 21 -296 54 -614 76 -160 11 -184 11 -197 -2 -14 -13 -4 -38 90
-222 58 -113 105 -215 105 -226 0 -24 -308 -393 -324 -388 -20 6 -316 371
-316 390 0 9 48 112 106 229 81 162 102 213 92 219 -13 8 -73 9 -188 2z m597
-780 c22 -27 58 -73 81 -104 l41 -55 -37 -360 -38 -359 -157 -306 -157 -306 0
-235 0 -235 68 -6 c37 -4 104 -7 149 -7 81 0 81 0 87 28 10 49 112 1173 147
1622 l11 145 46 49 c26 26 69 66 96 88 l50 40 17 -24 c10 -13 46 -72 80 -133
l61 -110 -52 -275 c-215 -1136 -274 -1460 -265 -1468 6 -7 66 -5 72 2 3 3 26
110 50 238 24 128 98 513 163 855 66 342 120 624 120 627 0 13 196 166 212
166 20 0 49 -37 106 -135 l41 -70 -163 -600 c-173 -632 -296 -1109 -296 -1144
0 -24 38 -43 137 -69 59 -15 63 -15 82 2 24 22 171 385 171 424 1 15 -11 167
-26 337 l-27 310 51 200 c82 319 138 506 158 526 28 27 186 119 206 119 12 0
28 -34 63 -139 l46 -139 -162 -403 c-237 -592 -258 -653 -234 -685 21 -29 44
-8 81 73 19 42 116 280 216 529 l181 452 117 61 c65 33 119 61 122 61 8 0 35
-67 67 -160 l28 -85 -163 -326 -163 -326 -259 -216 -259 -216 -80 -203 c-102
-256 -97 -240 -72 -257 45 -27 219 -111 232 -111 8 0 44 53 81 118 62 107 649
1281 725 1448 l33 71 106 32 c59 17 115 31 124 31 17 0 25 -35 48 -207 l11
-83 -302 -477 c-629 -994 -661 -1051 -606 -1061 43 -8 70 32 780 1158 l205
325 103 32 c57 17 118 32 136 32 30 1 32 -2 42 -49 6 -28 16 -82 22 -120 l11
-70 -425 -568 c-459 -614 -667 -899 -667 -914 0 -14 118 -127 150 -143 26 -13
29 -12 131 93 58 59 134 139 170 178 l65 70 88 310 c49 170 93 318 99 329 6
11 108 149 228 306 l218 286 73 11 c176 26 167 26 179 -5 15 -37 3 -251 -15
-278 -7 -11 -143 -157 -301 -325 -496 -525 -495 -523 -444 -551 15 -7 26 -4
50 13 17 13 153 151 301 308 352 370 437 453 490 478 31 14 74 22 152 26 l109
7 -6 -123 -6 -123 -58 -54 c-86 -79 -411 -371 -462 -414 -45 -38 -125 -66
-563 -201 l-116 -37 -123 -135 c-151 -166 -201 -231 -191 -249 14 -26 153
-185 161 -185 17 0 553 459 1123 962 l277 244 98 -8 c151 -12 147 -10 139 -66
-4 -26 -19 -92 -34 -146 l-27 -99 -305 -214 c-701 -492 -1100 -780 -1100 -794
0 -15 99 -10 133 7 54 28 191 122 763 526 544 383 552 388 601 388 70 0 216
-20 227 -31 13 -12 -17 -169 -41 -217 -15 -30 -52 -56 -228 -162 -197 -119
-543 -325 -735 -437 -111 -65 -113 -78 -18 -86 77 -7 108 -26 108 -68 0 -51
58 2 198 182 l83 106 313 182 c172 99 319 181 327 181 26 -1 182 -50 206 -65
12 -9 23 -21 23 -29 0 -7 -26 -67 -59 -132 l-58 -119 -472 -209 c-260 -115
-490 -222 -511 -237 -42 -31 -53 -65 -24 -76 20 -8 120 33 630 253 221 96 410
174 421 174 27 0 223 -66 237 -80 13 -13 -13 -92 -58 -175 l-31 -59 -337 -117
-337 -118 -223 20 c-123 11 -245 18 -273 17 l-50 -3 0 -140 0 -140 30 3 c17 2
294 91 617 199 l586 195 101 -53 c56 -29 107 -59 113 -66 8 -11 -9 -39 -79
-130 l-89 -117 -175 -38 c-95 -20 -384 -83 -641 -140 l-468 -102 0 -43 c0 -33
4 -43 16 -43 9 0 181 36 382 80 202 44 486 106 631 138 l264 56 123 -64 c75
-39 124 -71 124 -80 0 -20 -106 -175 -135 -199 -15 -11 -49 -21 -92 -25 -112
-11 -1186 -156 -1280 -172 l-33 -6 0 -150 0 -151 54 7 c73 8 102 22 393 184
l251 140 279 36 c388 49 427 52 456 33 56 -36 177 -140 177 -151 0 -18 -199
-190 -229 -197 -14 -4 -107 -7 -207 -8 -99 0 -343 -4 -542 -8 l-362 -6 0 -43
0 -42 563 5 562 5 105 -86 c58 -47 106 -89 108 -94 1 -5 -40 -48 -92 -96 l-94
-86 -352 26 -351 26 -212 115 c-336 183 -381 203 -449 203 l-58 0 0 -159 c0
-97 4 -162 10 -166 11 -7 379 -39 985 -85 l410 -32 48 -46 c58 -57 121 -147
113 -160 -3 -6 -58 -43 -122 -82 l-116 -71 -47 10 c-133 30 -1151 218 -1228
227 l-53 7 0 -35 c0 -20 6 -40 13 -46 7 -6 193 -45 412 -87 386 -74 798 -156
860 -173 21 -6 53 -37 113 -110 45 -56 82 -106 82 -111 0 -5 -46 -38 -103 -73
l-103 -64 -244 68 c-452 126 -962 260 -993 262 l-32 1 -3 -134 -3 -133 53 5
c29 3 153 16 275 28 l221 23 222 -63 c310 -87 472 -140 492 -159 17 -18 108
-194 108 -210 0 -12 -5 -14 -147 -62 l-113 -39 -182 76 c-256 105 -709 285
-795 316 -65 24 -74 25 -88 11 -28 -28 -19 -62 23 -82 31 -16 320 -136 878
-363 l120 -50 64 -125 c52 -103 61 -127 49 -134 -7 -5 -58 -25 -111 -44 l-98
-35 -339 175 -339 176 -68 86 c-155 195 -224 263 -224 220 -1 -35 -19 -42
-130 -49 -61 -4 -115 -10 -118 -14 -4 -4 6 -17 22 -30 36 -29 316 -192 636
-370 135 -75 300 -168 367 -207 l122 -69 31 -95 c37 -115 38 -142 8 -153 -13
-5 -75 -14 -138 -20 l-115 -11 -40 28 c-22 16 -254 181 -515 367 -577 412
-796 560 -838 570 -36 7 -95 -2 -90 -15 5 -14 220 -172 663 -490 442 -316 695
-502 736 -541 26 -26 66 -148 76 -235 6 -48 12 -45 -134 -65 l-92 -12 -73 59
c-40 32 -185 153 -323 269 -561 474 -1026 855 -1043 855 -10 0 -74 -71 -126
-141 l-27 -37 42 -48 c23 -27 101 -112 175 -190 l133 -141 288 -97 c158 -54
306 -108 328 -121 76 -44 521 -429 561 -484 6 -9 14 -67 18 -128 l7 -113 -68
0 c-37 0 -99 5 -137 10 -67 10 -71 13 -140 78 -39 37 -174 175 -301 307 -464
484 -441 462 -464 441 -43 -39 -53 -25 408 -520 168 -180 313 -340 323 -355
13 -21 38 -203 38 -280 0 -13 -81 -14 -170 -1 -63 8 -67 10 -129 77 -72 76
-329 395 -385 476 -30 44 -47 96 -115 347 -44 162 -84 305 -88 317 -9 26 -271
311 -320 349 -22 16 -40 23 -53 19 -24 -8 -180 -156 -180 -171 0 -21 424 -576
913 -1193 l209 -264 -6 -86 c-4 -47 -10 -103 -13 -124 -6 -37 -7 -39 -37 -33
-17 3 -81 20 -142 38 l-111 32 -349 556 c-552 878 -587 930 -623 930 -10 0
-24 -7 -31 -15 -21 -25 62 -166 636 -1080 l282 -450 -14 -107 c-17 -128 -27
-158 -53 -158 -27 0 -193 49 -208 62 -16 13 -48 72 -373 693 -446 851 -471
895 -503 895 -31 0 -163 -66 -180 -90 -14 -20 -14 -28 3 -88 27 -96 127 -353
142 -367 7 -7 121 -107 253 -223 l240 -211 169 -335 170 -334 -32 -108 c-17
-59 -37 -113 -42 -118 -11 -11 -108 34 -204 94 -58 37 -76 75 -220 445 -235
603 -257 655 -275 655 -20 0 -61 -27 -61 -41 0 -11 83 -235 262 -702 l141
-369 -17 -56 c-33 -109 -69 -202 -78 -202 -4 0 -57 27 -116 61 l-108 60 -103
355 -103 355 40 341 41 341 -77 199 -76 200 -56 -5 c-59 -5 -206 -57 -240 -85
l-21 -17 61 -215 c82 -288 183 -622 336 -1110 l126 -405 -58 -112 c-38 -72
-63 -109 -70 -105 -40 23 -203 167 -217 192 -11 19 -71 295 -157 728 -195 979
-198 992 -225 992 -11 0 -29 -6 -39 -13 -23 -17 -39 75 166 -965 l152 -773
-27 -52 c-15 -29 -45 -85 -68 -125 l-40 -73 -32 22 c-80 56 -166 132 -176 157
-6 15 -24 146 -41 292 -92 805 -174 1466 -184 1473 -12 9 -220 2 -236 -8 -6
-4 -10 -91 -10 -237 l0 -230 160 -297 160 -298 25 -309 c31 -382 31 -397 3
-437 -43 -64 -129 -167 -138 -167 -13 0 -124 134 -158 190 l-27 45 -4 570 -3
570 -39 -3 c-28 -3 -39 -9 -40 -21 0 -9 -4 -271 -8 -582 l-6 -566 -30 -39
c-40 -53 -125 -146 -146 -162 -16 -11 -26 -3 -92 80 -40 51 -77 99 -81 105 -4
7 11 176 34 377 l41 364 154 298 155 299 0 221 c0 196 -2 223 -16 228 -9 4
-63 9 -120 13 -103 6 -103 6 -113 -19 -8 -22 -38 -262 -147 -1203 -49 -423
-71 -565 -89 -585 -9 -9 -52 -43 -96 -75 l-81 -59 -17 22 c-9 12 -42 70 -73
130 l-57 108 120 614 c136 701 209 1083 209 1098 0 5 -18 14 -40 20 -37 9 -41
8 -45 -12 -3 -11 -77 -394 -165 -851 -89 -456 -163 -838 -166 -848 -3 -10 -56
-58 -117 -107 -87 -70 -114 -87 -123 -77 -21 22 -117 202 -116 217 0 8 57 197
126 420 148 482 294 973 343 1160 l35 134 -25 21 c-28 25 -242 99 -257 90 -18
-11 -59 -101 -120 -261 l-59 -154 43 -339 42 -339 -102 -354 -101 -353 -39
-23 c-22 -13 -72 -40 -112 -59 -61 -30 -75 -34 -83 -22 -5 8 -26 69 -48 136
l-40 123 100 262 c143 373 279 744 286 779 7 35 -10 59 -42 59 -24 0 -23 3
-333 -815 l-99 -260 -119 -67 c-65 -37 -124 -67 -131 -67 -6 -1 -30 55 -53
124 l-42 125 169 330 168 331 250 220 250 220 68 182 c97 262 92 245 73 266
-23 25 -162 93 -183 89 -10 -2 -29 -21 -44 -43 -33 -50 -226 -414 -482 -910
-108 -209 -227 -438 -265 -510 l-68 -130 -84 -27 c-46 -15 -100 -29 -119 -30
-32 -3 -36 0 -47 32 -17 50 -36 218 -28 244 4 11 110 188 237 391 463 744 677
1099 677 1122 0 14 -28 25 -49 18 -35 -11 -97 -106 -635 -972 l-318 -512 -111
-35 c-62 -19 -128 -37 -147 -38 l-34 -3 -14 123 -13 123 81 102 c438 553 1030
1328 1030 1349 0 17 -176 188 -194 188 -11 0 -263 -258 -328 -335 -9 -11 -55
-167 -101 -346 l-85 -327 -215 -268 c-117 -148 -222 -279 -233 -292 -16 -19
-34 -24 -115 -33 -64 -6 -105 -6 -123 1 -26 9 -26 10 -26 114 0 57 3 117 6
133 4 21 86 116 276 319 454 485 498 534 498 553 0 32 -25 44 -57 27 -36 -19
-225 -211 -533 -541 l-243 -260 -76 -11 c-42 -6 -104 -14 -139 -17 -59 -6 -63
-6 -74 18 -8 17 -8 55 0 134 10 107 11 111 44 139 214 187 507 437 523 447 11
7 160 61 330 120 l310 108 127 136 c70 75 142 155 158 178 l31 42 -20 38 c-21
43 -107 143 -122 143 -18 0 -374 -293 -1027 -848 l-394 -334 -81 12 c-45 6
-99 16 -119 21 -47 12 -47 19 -12 169 l26 110 351 252 c750 537 1067 771 1067
788 0 5 -13 11 -30 15 -61 13 -88 -4 -889 -578 l-553 -397 -130 15 c-72 8
-134 18 -139 21 -5 3 -9 17 -9 32 0 25 44 210 52 217 2 2 152 86 333 188 598
333 825 467 825 486 0 12 -51 21 -117 21 -72 0 -91 12 -99 60 -4 22 -12 40
-18 40 -13 0 -64 -58 -213 -244 -128 -159 -67 -118 -535 -359 l-228 -116 -67
25 c-99 36 -163 66 -163 77 0 14 111 226 124 236 6 5 153 68 326 139 574 237
690 288 705 312 3 5 1 19 -5 31 -10 17 -18 20 -42 15 -43 -8 -284 -103 -679
-265 l-346 -143 -134 47 c-74 26 -137 50 -141 53 -3 4 21 58 55 119 59 108 63
113 107 128 25 8 183 55 352 104 l307 88 208 -22 c114 -13 247 -26 296 -30
l87 -7 0 136 c0 110 -3 138 -14 142 -17 7 -277 -62 -863 -227 l-423 -119 -97
61 c-54 34 -103 66 -110 73 -18 16 111 184 164 213 56 31 132 48 758 168 303
59 558 108 568 111 12 4 17 16 17 46 l0 41 -52 -7 c-46 -6 -635 -118 -1144
-216 l-161 -32 -122 74 c-68 40 -125 79 -128 86 -5 12 81 124 134 173 24 23
40 28 118 34 233 17 1180 97 1255 105 47 6 88 10 93 10 4 0 7 72 7 160 l0 160
-73 0 c-68 0 -82 -4 -173 -49 -54 -26 -189 -98 -300 -159 l-201 -110 -269 -21
c-294 -23 -419 -26 -458 -11 -28 10 -178 149 -174 161 2 4 49 46 106 93 l102
86 565 0 565 0 0 34 c0 31 -3 34 -37 39 -21 4 -274 10 -562 13 l-524 7 -96 84
c-150 131 -147 114 -30 208 76 61 106 79 127 78 33 -3 510 -60 604 -73 72 -9
63 -4 382 -180 247 -135 282 -149 374 -150 l72 0 0 144 0 144 -27 6 c-16 3
-325 44 -688 91 -363 47 -676 90 -696 95 -36 10 -79 57 -157 172 l-32 47 119
65 c66 36 127 66 135 66 9 0 278 -56 598 -124 717 -153 731 -155 740 -150 5 3
8 23 8 44 l0 38 -87 21 c-49 11 -173 39 -278 61 -104 23 -363 80 -575 126
l-385 84 -33 38 c-42 48 -142 194 -142 208 0 6 46 34 103 62 l102 52 545 -179
c624 -205 676 -221 719 -221 l31 0 0 150 0 150 -42 0 c-24 0 -154 -11 -291
-25 l-247 -24 -343 117 -342 117 -57 115 c-31 63 -55 118 -52 122 6 10 218 78
243 78 11 0 176 -68 367 -151 491 -213 662 -281 685 -274 28 9 37 55 13 69
-53 31 -317 152 -642 293 l-364 158 -65 129 c-35 70 -62 134 -59 141 2 7 50
27 106 45 l102 33 47 -22 c25 -12 174 -95 330 -184 l285 -162 95 -120 c128
-163 201 -245 216 -245 13 0 25 51 25 111 0 36 0 36 51 42 29 4 54 9 57 12 17
17 -104 94 -636 407 -208 121 -382 225 -389 230 -12 10 -49 157 -55 218 l-3
35 65 11 c36 7 97 12 136 13 l72 1 578 -404 c319 -223 619 -430 668 -460 82
-51 94 -56 148 -56 32 0 58 4 58 9 0 11 -276 213 -635 466 -263 185 -705 497
-742 523 -14 11 -30 41 -42 82 -33 107 -54 211 -45 220 5 5 50 13 99 19 87 11
92 10 140 -14 28 -14 153 -116 290 -236 504 -444 1087 -939 1105 -939 11 0
143 153 160 186 15 27 22 18 -187 245 l-134 146 -112 33 c-157 45 -490 156
-524 174 -32 16 -358 302 -477 418 l-74 73 -7 75 c-4 41 -5 93 -3 115 l3 40
130 -2 130 -2 224 -233 c392 -407 554 -566 585 -574 28 -7 46 5 46 34 0 16
-111 137 -477 519 l-299 312 -11 147 c-7 82 -10 150 -8 152 7 7 227 -18 246
-28 20 -11 152 -175 331 -412 126 -166 127 -167 166 -290 22 -67 65 -213 97
-324 l57 -201 165 -172 c93 -96 172 -171 183 -171 22 0 109 69 145 115 l27 36
-28 42 c-55 86 -293 406 -674 912 l-392 520 7 50 c11 90 26 171 34 184 7 10
23 9 83 -8 41 -11 100 -29 131 -41 65 -24 13 51 622 -904 203 -318 375 -581
382 -583 7 -3 24 -2 38 1 18 5 25 13 25 30 0 26 -128 241 -372 626 -85 135
-241 381 -347 548 -105 166 -197 314 -203 327 -9 19 -7 53 6 147 10 68 21 127
26 132 8 8 143 -20 203 -43 20 -8 87 -133 375 -703 362 -718 466 -914 494
-932 14 -8 38 0 113 38 52 27 109 61 126 76 l32 26 -84 209 -84 209 -259 216
-258 215 -170 338 -169 339 32 96 c48 145 39 137 112 101 123 -62 177 -99 196
-137 10 -21 100 -238 200 -484 100 -246 191 -468 202 -493 22 -50 41 -56 75
-24 l23 21 -33 92 c-27 73 -176 448 -364 914 l-25 62 27 93 c15 50 36 111 46
134 17 39 21 42 44 34 56 -22 205 -113 210 -129 3 -9 49 -168 102 -352 l97
-335 -27 -325 c-14 -179 -26 -339 -26 -357 0 -31 148 -405 168 -425 7 -7 36
-2 92 18 93 32 140 58 140 77 0 16 -179 681 -316 1177 -53 190 -109 393 -124
453 l-28 107 30 58 c35 65 83 138 98 147 12 7 114 -72 178 -138 l43 -44 44
-219 c25 -120 99 -498 165 -839 67 -341 123 -627 126 -636 6 -21 49 -30 69
-15 13 10 11 35 -20 215 -42 241 -105 575 -213 1131 l-79 405 35 65 c72 132
104 180 121 180 23 0 145 -103 170 -143 23 -38 29 -87 87 -752 40 -467 91
-997 100 -1037 6 -32 14 -33 187 -21 l97 6 0 242 0 242 -160 300 -160 300 -25
302 c-34 414 -35 400 19 475 24 33 61 79 81 101 l37 40 35 -40 c51 -58 118
-146 133 -175 11 -20 15 -145 18 -598 l5 -572 36 6 c20 4 38 8 40 10 2 2 6
248 8 546 2 299 6 562 9 584 4 34 20 60 90 143 47 55 89 101 94 101 4 0 26
-21 47 -47z"/>
<path d="M5730 10146 l0 -346 45 0 45 0 -1 268 c-1 147 -4 301 -8 342 l-6 75
-37 3 -38 3 0 -345z"/>
<path d="M6157 10483 c-4 -3 -7 -159 -7 -345 l0 -338 45 0 45 0 0 345 0 345
-38 0 c-21 0 -42 -3 -45 -7z"/>
<path d="M6595 10428 c-6 -19 -102 -543 -110 -606 -10 -76 26 -111 60 -58 17
26 58 216 104 481 26 154 28 171 13 183 -9 6 -26 12 -39 12 -13 0 -26 -6 -28
-12z"/>
<path d="M5305 10420 c-7 -11 22 -197 71 -444 46 -238 38 -218 87 -214 41 3
42 3 39 38 -5 54 -109 571 -121 603 -8 21 -17 27 -40 27 -16 0 -33 -4 -36 -10z"/>
<path d="M4891 10336 c-14 -17 -8 -59 50 -349 61 -311 73 -342 120 -317 20 11
21 17 16 74 -8 87 -95 521 -114 568 -16 41 -49 52 -72 24z"/>
<path d="M7007 10318 c-26 -102 -98 -527 -100 -583 -2 -63 0 -70 18 -73 11 -1
26 2 34 7 9 6 36 123 78 338 34 180 63 329 63 331 0 1 -20 2 -44 2 -37 0 -45
-3 -49 -22z"/>
<path d="M4460 10215 c-15 -18 -5 -50 100 -315 109 -273 125 -307 149 -315 27
-8 61 11 61 34 0 36 -151 414 -221 554 -23 45 -34 57 -53 57 -13 0 -29 -7 -36
-15z"/>
<path d="M7429 10183 c-34 -79 -164 -412 -195 -501 -25 -72 -27 -84 -14 -92
42 -27 66 2 131 159 101 245 151 386 152 431 2 42 0 45 -26 48 -24 3 -30 -2
-48 -45z"/>
<path d="M7813 10002 c-36 -78 -166 -403 -199 -500 -21 -60 -13 -85 28 -90 23
-3 29 4 62 83 19 47 74 188 122 313 90 235 91 246 45 263 -20 8 -25 3 -58 -69z"/>
<path d="M4066 10051 c-10 -15 168 -491 225 -602 21 -42 42 -49 74 -25 18 13
19 18 7 63 -19 71 -192 499 -216 536 -22 33 -77 50 -90 28z"/>
<path d="M3687 9842 c-10 -10 -17 -24 -17 -30 0 -18 75 -140 223 -364 136
-207 147 -218 187 -178 24 24 30 10 -85 201 -109 179 -212 339 -238 367 -25
27 -48 28 -70 4z"/>
<path d="M8223 9838 c-53 -57 -333 -516 -333 -546 0 -21 26 -42 52 -42 16 0
254 370 317 492 37 73 42 89 31 102 -18 22 -43 20 -67 -6z"/>
<path d="M8561 9577 c-220 -332 -311 -486 -311 -524 0 -19 6 -23 30 -23 24 0
37 10 72 58 45 61 234 359 287 454 l32 56 -23 16 c-36 25 -51 19 -87 -37z"/>
<path d="M3332 9608 c-6 -6 -12 -22 -12 -34 0 -32 303 -509 346 -545 19 -16
67 -1 72 22 3 17 -138 256 -260 440 -65 98 -88 125 -108 127 -14 2 -31 -3 -38
-10z"/>
<path d="M8804 9197 c-166 -170 -276 -291 -292 -323 -9 -18 -8 -25 8 -39 18
-16 21 -16 54 4 53 33 397 397 426 452 10 18 -13 59 -34 59 -7 0 -80 -69 -162
-153z"/>
<path d="M2986 9318 c-20 -28 -16 -35 112 -175 206 -226 319 -335 343 -331 34
5 46 31 29 64 -20 37 -439 464 -455 464 -8 0 -21 -10 -29 -22z"/>
<path d="M2698 9037 c-32 -26 -28 -46 21 -104 81 -98 325 -356 364 -386 43
-33 80 -33 85 -1 4 26 -23 59 -230 281 -183 198 -218 228 -240 210z"/>
<path d="M9113 8905 c-199 -202 -315 -333 -311 -352 2 -9 13 -22 26 -31 21
-14 26 -11 113 74 87 85 304 319 348 376 l21 27 -25 28 -24 28 -148 -150z"/>
<path d="M2420 8682 c-37 -30 -21 -63 63 -125 73 -53 369 -258 419 -290 35
-22 55 -22 68 2 27 52 13 66 -310 287 -221 152 -213 148 -240 126z"/>
<path d="M9436 8635 c-154 -97 -429 -298 -440 -321 -6 -16 22 -54 41 -54 18 0
127 71 332 217 179 128 201 148 201 185 0 43 -34 36 -134 -27z"/>
<path d="M5820 8584 c-240 -21 -487 -74 -685 -146 -233 -85 -534 -251 -715
-397 -81 -65 -283 -263 -364 -357 -68 -79 -93 -120 -82 -131 9 -10 3885 -17
3974 -8 37 4 62 11 62 18 0 26 -112 160 -245 293 -211 211 -417 358 -680 485
-329 159 -656 236 -1035 243 -102 2 -205 2 -230 0z"/>
<path d="M9700 8298 c-185 -126 -374 -263 -415 -301 -36 -33 -44 -47 -39 -64
8 -27 32 -29 77 -7 64 33 507 347 507 360 0 16 -33 64 -43 64 -6 0 -46 -24
-87 -52z"/>
<path d="M2173 8318 c-15 -20 -22 -44 -15 -55 4 -5 91 -69 194 -141 310 -218
356 -243 378 -202 9 17 8 26 -5 46 -33 50 -483 364 -522 364 -11 0 -25 -6 -30
-12z"/>
<path d="M9965 7930 c-80 -27 -383 -158 -467 -202 -42 -22 -79 -46 -82 -54 -7
-17 10 -54 24 -54 39 0 562 228 593 258 20 21 17 56 -6 65 -7 2 -34 -4 -62
-13z"/>
<path d="M1956 7924 c-34 -34 -9 -63 101 -118 79 -39 324 -146 420 -182 l62
-23 20 26 c12 14 21 32 21 40 0 17 -154 91 -411 197 -103 42 -189 76 -192 76
-3 0 -13 -7 -21 -16z"/>
<path d="M1792 7538 c-7 -7 -12 -26 -12 -43 0 -31 4 -34 108 -83 165 -78 423
-183 462 -189 41 -6 63 13 58 49 -2 19 -25 33 -123 76 -115 51 -471 202 -478
202 -2 0 -8 -5 -15 -12z"/>
<path d="M10020 7491 c-208 -84 -394 -169 -419 -192 -22 -21 -26 -45 -12 -68
11 -17 45 -5 296 102 212 90 303 135 315 158 14 25 4 59 -18 59 -9 0 -82 -27
-162 -59z"/>
<path d="M2977 7493 c-4 -3 -7 -678 -7 -1500 l0 -1493 3045 0 3045 0 -2 1498
-3 1497 -3036 3 c-1670 1 -3039 -1 -3042 -5z m3172 -244 c68 -15 144 -55 220
-115 38 -30 72 -54 74 -54 3 0 28 32 56 71 29 39 57 69 64 66 20 -6 26 -73 26
-328 1 -264 -4 -339 -24 -339 -17 0 -31 37 -55 149 -52 239 -154 391 -308 464
-61 29 -75 32 -162 31 -78 0 -104 -5 -143 -23 -121 -59 -226 -264 -257 -504
-30 -231 -20 -1212 15 -1424 31 -191 112 -329 234 -401 43 -25 54 -27 161 -27
108 0 119 2 173 30 124 62 224 223 292 470 20 72 38 138 41 148 7 21 40 22 48
1 8 -21 5 -630 -3 -669 l-6 -30 -27 35 c-15 19 -42 55 -60 79 -18 25 -37 46
-43 48 -5 1 -41 -22 -80 -53 -38 -31 -104 -73 -145 -93 -73 -35 -78 -36 -191
-36 l-116 0 -95 47 c-73 36 -112 64 -165 117 -205 203 -361 585 -394 970 -30
345 78 779 264 1058 98 146 232 264 349 304 60 21 186 25 257 8z m1504 -28
c68 -7 97 -25 76 -46 -5 -5 -62 -12 -125 -14 -82 -2 -117 -7 -120 -16 -7 -17
41 -221 217 -925 155 -620 193 -760 209 -760 5 0 21 37 34 83 27 88 170 654
286 1137 104 430 111 462 104 469 -3 3 -55 9 -115 12 -84 4 -114 9 -126 22
-37 37 -6 42 242 42 209 0 236 -2 252 -17 28 -29 2 -42 -94 -48 -62 -4 -88 -9
-94 -20 -5 -8 -108 -427 -228 -930 -121 -503 -249 -1036 -285 -1184 -36 -150
-70 -272 -78 -277 -19 -13 -26 -11 -37 10 -6 10 -143 550 -305 1201 -162 650
-298 1185 -301 1188 -3 4 -44 10 -91 13 -129 10 -157 49 -43 60 97 9 545 9
622 0z m-3288 -35 c215 -48 357 -182 412 -388 26 -96 23 -264 -6 -348 -33 -94
-82 -169 -158 -240 -62 -59 -101 -81 -251 -146 -27 -12 -32 -17 -23 -28 7 -8
28 -17 49 -20 20 -4 80 -28 132 -54 166 -83 263 -204 311 -390 23 -93 25 -250
4 -341 -45 -189 -191 -351 -369 -411 -86 -28 -261 -40 -611 -39 -320 1 -448 8
-467 27 -26 26 9 37 127 41 l115 3 0 1138 0 1137 -105 6 c-57 3 -113 11 -125
17 -20 11 -27 40 -12 55 4 4 210 5 457 2 354 -5 465 -9 520 -21z"/>
<path d="M3930 6607 l0 -529 168 4 c162 3 168 4 213 31 57 34 71 49 103 113
38 75 56 202 56 388 -1 303 -20 383 -113 474 l-42 40 -192 4 -193 4 0 -529z"/>
<path d="M3932 5429 l3 -574 182 2 c197 1 239 9 279 51 85 91 103 171 111 472
6 258 -5 363 -47 452 -27 57 -90 125 -133 143 -20 8 -103 16 -215 20 l-182 8
2 -574z"/>
<path d="M10100 7080 c-102 -21 -241 -51 -310 -67 l-125 -28 -3 -34 c-2 -18 1
-38 6 -43 9 -9 279 42 557 104 l100 23 -3 30 c-4 29 -18 56 -31 54 -3 0 -89
-18 -191 -39z"/>
<path d="M1675 7094 c-9 -9 -15 -28 -13 -43 3 -24 10 -27 98 -48 81 -20 407
-88 507 -106 22 -4 37 -1 48 9 20 21 19 60 -2 68 -27 11 -598 136 -619 136 -1
0 -10 -7 -19 -16z"/>
<path d="M10190 6654 c-359 -75 -445 -97 -448 -119 -1 -11 4 -29 12 -40 14
-20 17 -20 228 23 329 67 426 91 432 109 8 21 -20 63 -42 62 -9 0 -91 -16
-182 -35z"/>
<path d="M1584 6666 c-3 -8 -4 -27 -2 -42 3 -27 8 -30 78 -46 170 -40 513
-108 545 -108 34 0 35 1 35 40 0 37 -2 40 -37 49 -109 29 -562 121 -595 121
-10 0 -21 -6 -24 -14z"/>
<path d="M9921 6233 c-58 -2 -111 -9 -118 -15 -7 -6 -13 -23 -13 -39 l0 -29
248 0 c137 0 290 3 340 6 l92 7 0 38 0 39 -222 -2 c-123 -1 -270 -4 -327 -5z"/>
<path d="M1527 6223 c-4 -3 -7 -21 -7 -39 l0 -32 113 -6 c61 -3 214 -8 340
-12 l227 -6 0 51 0 51 -333 0 c-184 0 -337 -3 -340 -7z"/>
<path d="M9938 5803 l-148 -4 0 -39 0 -40 334 0 334 0 6 31 c12 63 23 59 -186
57 -106 -1 -259 -4 -340 -5z"/>
<path d="M1528 5795 c-5 -5 -8 -23 -8 -40 l0 -32 68 -6 c37 -4 190 -10 340
-13 l272 -7 0 47 0 46 -147 0 c-82 0 -231 3 -333 6 -102 4 -188 3 -192 -1z"/>
<path d="M2145 5463 c-11 -2 -114 -22 -230 -44 -359 -68 -355 -67 -355 -98 0
-45 12 -53 66 -46 67 10 576 104 592 110 9 3 12 18 10 42 -3 34 -6 38 -33 40
-16 0 -39 -1 -50 -4z"/>
<path d="M9767 5463 c-2 -5 -7 -20 -11 -35 -5 -20 -2 -28 11 -32 33 -10 317
-64 482 -91 179 -30 184 -30 179 30 l-3 30 -145 27 c-382 74 -502 90 -513 71z"/>
<path d="M2135 5020 c-77 -15 -216 -42 -310 -60 -93 -17 -173 -34 -177 -37
-11 -6 -10 -55 1 -71 8 -14 139 6 450 69 201 40 221 47 221 67 0 19 -27 63
-38 61 -4 -1 -70 -14 -147 -29z"/>
<path d="M9698 5038 c-8 -7 -18 -23 -21 -36 -7 -30 6 -35 168 -66 337 -64 488
-87 497 -74 8 13 11 78 4 78 -2 0 -123 22 -267 49 -328 61 -360 65 -381 49z"/>
<path d="M2232 4674 c-235 -94 -405 -167 -439 -187 -25 -14 -33 -26 -33 -48 0
-16 6 -32 13 -35 17 -6 126 34 367 133 223 92 264 116 256 146 -3 12 -6 25 -6
28 0 20 -38 11 -158 -37z"/>
<path d="M9610 4711 c-18 -35 -12 -60 22 -77 61 -32 549 -224 568 -224 21 0
40 27 40 58 0 15 -21 29 -92 60 -170 74 -498 202 -517 202 -6 0 -15 -9 -21
-19z"/>
<path d="M4358 4441 c-223 -3 -409 -9 -413 -13 -20 -20 201 -276 363 -420 378
-336 770 -526 1253 -609 118 -21 167 -23 424 -24 302 0 389 9 605 61 536 130
1019 438 1363 868 48 60 87 113 87 117 0 4 -15 9 -32 13 -46 8 -3156 14 -3650
7z"/>
<path d="M9456 4308 c-24 -35 -19 -54 19 -72 82 -39 557 -226 574 -226 21 0
47 52 36 71 -4 6 -33 23 -64 36 -130 58 -528 213 -547 213 -2 0 -10 -10 -18
-22z"/>
<path d="M2243 4216 c-312 -128 -317 -131 -321 -179 -2 -22 1 -37 8 -37 18 0
233 82 433 165 166 69 187 80 187 100 0 38 -11 55 -34 54 -11 0 -134 -47 -273
-103z"/>
<path d="M9286 4048 c-29 -40 -19 -54 87 -131 128 -93 315 -222 386 -267 61
-38 84 -34 89 18 3 28 -4 36 -71 86 -136 100 -452 315 -464 316 -6 0 -19 -10
-27 -22z"/>
<path d="M2564 3984 c-149 -100 -405 -295 -418 -316 -14 -23 3 -52 33 -56 23
-4 141 74 317 208 236 180 244 189 208 224 -8 9 -18 16 -22 16 -4 -1 -57 -35
-118 -76z"/>
<path d="M9044 3685 c-16 -25 -16 -27 7 -52 30 -32 309 -242 422 -317 47 -31
91 -56 100 -56 19 0 51 55 41 71 -17 28 -518 379 -540 379 -8 0 -21 -11 -30
-25z"/>
<path d="M2785 3612 c-162 -109 -342 -242 -373 -275 -15 -15 -22 -34 -20 -49
6 -42 51 -25 202 76 167 112 356 254 370 278 8 13 6 22 -8 37 -11 12 -24 21
-30 21 -6 0 -69 -40 -141 -88z"/>
<path d="M8848 3447 c-43 -35 -34 -49 209 -310 205 -220 231 -240 263 -202 10
12 9 20 -4 40 -46 70 -400 456 -436 475 -11 6 -22 5 -32 -3z"/>
<path d="M3093 3411 c-46 -34 -348 -353 -388 -411 -32 -46 -27 -80 11 -80 28
0 130 98 318 305 137 151 153 176 130 199 -21 21 -25 21 -71 -13z"/>
<path d="M3378 3103 c-28 -27 -114 -115 -190 -198 -203 -219 -243 -285 -172
-285 30 0 138 105 339 326 126 140 135 156 110 184 -10 11 -22 20 -27 20 -5 0
-32 -21 -60 -47z"/>
<path d="M8536 3137 c-17 -12 -17 -16 -3 -43 24 -45 84 -114 259 -297 158
-165 193 -192 223 -167 25 20 18 36 -47 112 -94 109 -389 408 -402 408 -7 0
-20 -6 -30 -13z"/>
<path d="M8281 2936 c-20 -21 -21 -27 -10 -48 30 -57 111 -187 222 -355 94
-145 124 -183 141 -183 26 0 46 18 46 40 0 20 -186 333 -277 465 -38 55 -76
101 -84 103 -8 1 -25 -8 -38 -22z"/>
<path d="M3659 2929 c-27 -27 -122 -174 -249 -384 l-101 -170 22 -18 c43 -34
57 -21 173 165 126 199 188 306 210 360 14 33 14 38 0 52 -20 21 -30 20 -55
-5z"/>
<path d="M4019 2699 c-47 -47 -301 -460 -324 -526 -15 -42 -6 -63 26 -63 24 0
74 68 204 278 107 175 165 280 165 300 0 10 -30 32 -44 32 -3 0 -15 -9 -27
-21z"/>
<path d="M7926 2704 c-9 -8 -16 -21 -16 -28 0 -37 335 -559 362 -564 9 -2 26
6 37 17 l21 21 -25 49 c-59 117 -255 428 -308 487 -32 38 -48 42 -71 18z"/>
<path d="M7639 2541 l-24 -19 94 -248 c51 -137 106 -277 122 -312 27 -61 30
-63 61 -60 62 6 55 37 -75 363 -122 307 -128 317 -178 276z"/>
<path d="M4308 2533 c-9 -10 -21 -28 -27 -40 -17 -33 -127 -323 -172 -452 -43
-124 -41 -141 11 -141 27 0 31 6 70 108 56 142 104 272 152 411 30 89 36 116
26 122 -21 14 -44 10 -60 -8z"/>
<path d="M4681 2363 c-20 -40 -144 -371 -193 -513 l-29 -85 22 -17 c12 -10 26
-18 31 -18 20 0 190 419 235 580 16 60 16 63 -2 76 -30 22 -43 17 -64 -23z"/>
<path d="M7251 2389 c-19 -8 -22 -14 -16 -37 9 -38 102 -290 170 -464 51 -130
61 -148 81 -148 39 0 54 11 54 41 0 58 -196 553 -238 602 -17 19 -18 19 -51 6z"/>
<path d="M4966 2073 c-76 -391 -83 -442 -66 -453 8 -5 27 -10 41 -10 l27 0 40
213 c23 116 51 266 63 332 l21 119 -22 18 c-52 42 -54 37 -104 -219z"/>
<path d="M6923 2284 c-3 -8 -3 -40 1 -70 11 -93 107 -589 116 -598 6 -5 22 -5
42 1 32 9 33 10 30 59 -3 52 -96 537 -113 592 -9 27 -16 32 -40 32 -18 0 -32
-6 -36 -16z"/>
<path d="M5426 2202 c-6 -11 -51 -233 -96 -481 -20 -109 -28 -177 -22 -183 5
-5 25 -8 43 -6 l34 3 56 300 c32 165 59 316 61 335 3 34 2 35 -34 38 -20 2
-39 -1 -42 -6z"/>
<path d="M6503 2194 c-7 -20 9 -118 68 -412 27 -133 49 -244 49 -247 0 -8 64
-5 78 3 13 9 -10 148 -79 479 -37 177 -43 193 -81 193 -17 0 -31 -6 -35 -16z"/>
<path d="M5740 1824 l0 -345 43 3 42 3 3 343 2 342 -45 0 -45 0 0 -346z"/>
<path d="M6160 1893 c0 -153 3 -308 7 -345 l6 -68 38 0 39 0 0 345 0 345 -45
0 -45 0 0 -277z"/>
<path d="M5940 11145 l0 -335 45 0 45 0 0 335 0 335 -45 0 -45 0 0 -335z"/>
<path d="M6995 11378 c-8 -25 -107 -564 -112 -614 -5 -47 -4 -52 17 -57 38
-10 57 9 69 64 28 128 101 542 101 569 0 24 -6 33 -26 40 -34 13 -44 13 -49
-2z"/>
<path d="M4902 11368 c-9 -12 26 -225 95 -573 l18 -90 34 2 c18 0 37 5 42 10
15 15 -84 552 -117 631 -9 24 -19 32 -37 32 -14 0 -29 -6 -35 -12z"/>
<path d="M3900 11073 c-37 -14 -34 -26 100 -359 102 -252 114 -274 148 -274
53 0 54 13 7 144 -50 140 -156 409 -179 453 -19 39 -42 49 -76 36z"/>
<path d="M8017 11063 c-16 -18 -150 -348 -206 -505 -17 -49 -28 -95 -25 -103
10 -25 51 -18 72 13 30 43 232 549 232 581 0 11 -31 31 -48 31 -5 0 -16 -8
-25 -17z"/>
<path d="M2973 10576 c-28 -24 -28 -24 -11 -59 20 -42 139 -234 251 -404 69
-106 84 -123 107 -123 14 0 35 6 45 14 18 13 17 17 -29 97 -59 102 -311 485
-325 493 -5 4 -22 -5 -38 -18z"/>
<path d="M8919 10538 c-33 -46 -248 -384 -292 -459 -16 -27 -25 -53 -21 -63 7
-19 40 -39 52 -32 27 17 256 367 326 500 28 53 34 72 25 82 -22 27 -57 16 -90
-28z"/>
<path d="M2140 9895 c-7 -8 -10 -25 -6 -40 10 -38 437 -468 460 -464 39 8 42
34 10 80 -43 63 -416 440 -435 439 -9 0 -22 -7 -29 -15z"/>
<path d="M9619 9743 c-260 -265 -307 -332 -241 -341 30 -4 77 37 241 211 212
225 226 243 213 272 -7 14 -20 25 -30 25 -11 0 -88 -70 -183 -167z"/>
<path d="M1468 9089 c-20 -11 -23 -41 -8 -69 18 -34 478 -354 527 -366 27 -7
53 11 53 37 0 27 -257 224 -479 368 -71 45 -69 45 -93 30z"/>
<path d="M10348 9017 c-151 -102 -343 -241 -380 -275 -30 -28 -35 -51 -16 -70
23 -23 48 -12 171 71 227 153 397 287 397 312 0 12 -31 45 -42 45 -4 0 -62
-37 -130 -83z"/>
<path d="M10980 8143 c-63 -24 -385 -164 -467 -204 -97 -46 -103 -51 -103 -79
0 -19 6 -33 16 -37 8 -3 59 11 112 33 154 60 444 192 464 211 12 11 18 27 16
47 -3 31 -13 38 -38 29z"/>
<path d="M947 8133 c-4 -3 -7 -19 -7 -35 0 -37 28 -54 260 -156 282 -124 340
-145 356 -131 18 15 18 63 0 78 -34 28 -344 164 -514 225 -79 28 -85 29 -95
19z"/>
<path d="M11235 7103 c-152 -32 -482 -104 -517 -114 -36 -9 -38 -12 -38 -49 0
-35 3 -40 23 -40 13 0 159 29 325 65 167 36 305 65 307 65 3 0 5 15 5 33 0 30
-15 59 -29 56 -4 -1 -37 -8 -76 -16z"/>
<path d="M630 7095 c-7 -8 -9 -26 -5 -44 6 -28 10 -31 113 -55 182 -42 521
-107 544 -104 26 4 42 50 24 71 -6 8 -88 30 -191 51 -236 49 -467 96 -470 96
-1 0 -8 -7 -15 -15z"/>
<path d="M11015 6030 c-126 -4 -231 -8 -233 -9 -2 0 -2 -18 0 -38 l3 -38 330
0 330 0 3 48 3 47 -103 -2 c-57 -1 -206 -5 -333 -8z"/>
<path d="M520 5975 l0 -45 345 0 345 0 0 38 0 39 -167 6 c-91 4 -246 7 -345 7
l-178 0 0 -45z"/>
<path d="M10697 5063 c-12 -11 -8 -50 6 -61 13 -11 573 -122 615 -122 16 0 23
8 28 36 3 19 3 39 -2 44 -8 8 -262 59 -469 95 -95 16 -167 19 -178 8z"/>
<path d="M1090 5035 c-149 -25 -452 -84 -456 -88 -6 -6 -8 -77 -2 -83 6 -5
184 27 611 109 53 10 57 12 57 38 0 30 -24 50 -57 48 -10 0 -79 -11 -153 -24z"/>
<path d="M10457 4143 c-4 -3 -7 -22 -7 -40 0 -32 4 -36 58 -60 139 -61 472
-193 490 -193 26 0 44 24 40 52 -4 29 -52 53 -331 165 -200 80 -236 91 -250
76z"/>
<path d="M1300 4056 c-350 -143 -360 -148 -360 -199 0 -28 2 -29 34 -24 47 7
373 138 487 195 53 27 95 54 97 63 3 18 -23 49 -41 49 -7 -1 -104 -38 -217
-84z"/>
<path d="M9994 3302 c-17 -11 -36 -51 -29 -62 10 -16 231 -179 362 -266 130
-87 176 -103 188 -65 10 33 -5 50 -119 135 -119 89 -375 266 -385 266 -3 0
-11 -4 -17 -8z"/>
<path d="M1929 3259 c-203 -131 -455 -320 -464 -348 -7 -24 4 -51 21 -51 39 0
292 168 474 316 73 58 83 79 52 108 -18 15 -22 14 -83 -25z"/>
<path d="M9368 2545 c-10 -22 -6 -31 47 -94 31 -39 127 -143 212 -231 118
-121 161 -160 177 -158 14 2 22 11 24 29 2 21 -14 47 -75 120 -120 143 -333
359 -354 359 -11 0 -24 -11 -31 -25z"/>
<path d="M2564 2531 c-22 -15 -93 -86 -160 -157 -238 -254 -270 -300 -231
-332 22 -19 70 23 250 215 226 243 243 268 198 292 -15 8 -27 4 -57 -18z"/>
<path d="M8642 1968 c-7 -7 -12 -20 -12 -31 0 -25 168 -314 288 -494 39 -59
66 -68 98 -32 18 20 18 21 -11 76 -53 97 -252 417 -285 456 -32 38 -57 46 -78
25z"/>
<path d="M3298 1943 c-31 -34 -105 -148 -238 -370 -82 -135 -98 -168 -90 -184
10 -17 56 -37 64 -28 2 2 64 101 138 219 152 242 201 332 196 363 -5 33 -39
32 -70 0z"/>
<path d="M4115 1458 c-44 -96 -185 -483 -192 -526 -6 -36 6 -52 39 -52 24 0
43 40 136 290 109 292 119 325 102 344 -27 34 -50 19 -85 -56z"/>
<path d="M7801 1516 c-16 -19 -7 -53 86 -300 97 -259 127 -326 148 -326 28 0
55 20 55 40 0 43 -188 533 -221 574 -23 29 -50 34 -68 12z"/>
<path d="M5025 1248 c-15 -42 -108 -563 -109 -608 -1 -48 2 -55 19 -58 53 -7
64 27 136 455 27 158 30 195 19 207 -15 19 -59 21 -65 4z"/>
<path d="M6913 1244 c-3 -9 -3 -46 0 -82 7 -83 93 -515 107 -543 9 -15 19 -19
43 -17 32 3 32 4 30 53 -2 50 -83 496 -103 568 -10 32 -15 37 -41 37 -18 0
-32 -6 -36 -16z"/>
<path d="M5950 825 l0 -335 45 0 45 0 0 335 0 335 -45 0 -45 0 0 -335z"/>
</g>
</svg>
